<svg width="25" height="25" viewBox="0 0 25 25" fill="none" xmlns="http://www.w3.org/2000/svg">
<g clip-path="url(#clip0_41_996)">
<path d="M12.5 18.125C9.53712 18.125 7.13868 15.8316 6.91798 12.9254L2.82032 9.75859C2.28165 10.4344 1.78594 11.1488 1.38594 11.9301C1.29659 12.1068 1.25003 12.3021 1.25003 12.5002C1.25003 12.6983 1.29659 12.8935 1.38594 13.0703C3.5043 17.2035 7.69805 20 12.5 20C13.5512 20 14.5652 19.8437 15.5426 19.5914L13.5156 18.023C13.1809 18.0877 12.8409 18.1218 12.5 18.125ZM24.7586 20.3945L20.4402 17.057C21.752 15.9515 22.8309 14.5962 23.6141 13.0699C23.7034 12.8932 23.75 12.6979 23.75 12.4998C23.75 12.3017 23.7034 12.1064 23.6141 11.9297C21.4957 7.79648 17.302 5 12.5 5C10.4889 5.00243 8.5104 5.50873 6.74532 6.47265L1.77579 2.63164C1.71098 2.58121 1.63688 2.54405 1.55771 2.52227C1.47854 2.5005 1.39585 2.49453 1.31437 2.50473C1.2329 2.51492 1.15423 2.54107 1.08286 2.58168C1.01149 2.62229 0.948827 2.67656 0.898445 2.7414L0.131648 3.72851C0.0299284 3.85936 -0.0156514 4.02526 0.004933 4.18972C0.0255174 4.35417 0.11058 4.50372 0.241413 4.60546L23.2242 22.3684C23.289 22.4188 23.3631 22.4559 23.4423 22.4777C23.5215 22.4995 23.6042 22.5055 23.6856 22.4953C23.7671 22.4851 23.8458 22.4589 23.9172 22.4183C23.9885 22.3777 24.0512 22.3234 24.1016 22.2586L24.8688 21.2715C24.9704 21.1406 25.016 20.9746 24.9953 20.8102C24.9746 20.6457 24.8895 20.4962 24.7586 20.3945ZM17.582 14.8477L16.0469 13.6609C16.1762 13.2873 16.2447 12.8953 16.25 12.5C16.2576 11.9212 16.1294 11.3487 15.8756 10.8284C15.6218 10.3082 15.2496 9.85467 14.7887 9.50438C14.3279 9.15409 13.7913 8.91676 13.2221 8.81146C12.6529 8.70615 12.067 8.73581 11.5113 8.89804C11.7469 9.21722 11.8743 9.60331 11.875 10C11.8692 10.132 11.849 10.263 11.8148 10.3906L8.93946 8.16835C9.93828 7.33367 11.1983 6.87596 12.5 6.875C13.2388 6.87459 13.9704 7.0198 14.6531 7.30234C15.3357 7.58487 15.956 7.99919 16.4784 8.5216C17.0008 9.04401 17.4151 9.66427 17.6977 10.3469C17.9802 11.0296 18.1254 11.7612 18.125 12.5C18.125 13.3449 17.9184 14.1324 17.582 14.848V14.8477Z" fill="black" fill-opacity="0.6"/>
</g>
<defs>
<clipPath id="clip0_41_996">
<rect width="25" height="25" fill="white"/>
</clipPath>
</defs>
</svg>
