<svg width="53" height="37" viewBox="0 0 53 37" fill="none" xmlns="http://www.w3.org/2000/svg">
<path d="M52.2791 29.1343C52.4018 27.2499 51.9937 25.3691 51.1049 23.7218C50.2161 22.0746 48.885 20.7322 47.2742 19.8588C42.5161 16.9649 37.7284 14.0802 32.9108 11.2048C27.4807 7.93983 22.0417 4.69649 16.5937 1.4748C15.2891 0.622756 13.8034 0.116368 12.2668 0C10.3596 0.00659436 8.49696 0.600474 6.91404 1.70669L0 5.87139C1.29134 5.25997 2.69379 4.94367 4.11273 4.94384C5.6493 5.06021 7.13498 5.5666 8.43958 6.41864C13.8816 9.63415 19.3207 12.8775 24.7567 16.1486C29.5505 19.024 34.3383 21.9087 39.1201 24.8027C40.7301 25.677 42.0606 27.0195 42.9493 28.6665C43.838 30.3136 44.2465 32.1939 44.125 34.0782C44.1595 34.6182 44.08 35.1596 43.892 35.6644C43.7039 36.1691 43.412 36.625 43.0366 37L50.9052 32.2324C51.7438 31.7964 52.1988 30.7483 52.2791 29.1343Z" fill="#AE140B" fill-opacity="0.41"/>
</svg>
