<svg width="28" height="28" viewBox="0 0 28 28" fill="none" xmlns="http://www.w3.org/2000/svg">
<path d="M23.2167 24.4708L15.5458 16.8C14.9625 17.3056 14.2823 17.6993 13.5054 17.9813C12.7284 18.2632 11.9016 18.4042 11.025 18.4042C8.92185 18.4042 7.1419 17.675 5.68514 16.2167C4.22838 14.7583 3.5 12.9986 3.5 10.9375C3.5 8.8764 4.22917 7.11667 5.6875 5.65834C7.14583 4.20001 8.91042 3.47084 10.9812 3.47084C13.0521 3.47084 14.8118 4.20001 16.2604 5.65834C17.709 7.11667 18.4333 8.87785 18.4333 10.9419C18.4333 11.7751 18.2972 12.5806 18.025 13.3583C17.7528 14.1361 17.3444 14.8653 16.8 15.5458L24.5 23.1875L23.2167 24.4708ZM10.9958 16.6542C12.5757 16.6542 13.9186 16.0951 15.0245 14.9771C16.1304 13.859 16.6833 12.5125 16.6833 10.9375C16.6833 9.36251 16.1304 8.01598 15.0245 6.89792C13.9186 5.77987 12.5757 5.22084 10.9958 5.22084C9.39978 5.22084 8.04312 5.77987 6.92586 6.89792C5.80862 8.01598 5.25 9.36251 5.25 10.9375C5.25 12.5125 5.80862 13.859 6.92586 14.9771C8.04312 16.0951 9.39978 16.6542 10.9958 16.6542Z" fill="black" fill-opacity="0.6"/>
</svg>
