<svg width="26" height="29" viewBox="0 0 26 29" fill="none" xmlns="http://www.w3.org/2000/svg">
<path d="M17.1414 23.3125V23.875C17.1414 26.1584 15.2817 28 13 28C10.7183 28 8.85863 26.1584 8.85863 23.875V23.3125H3.57637C2.03422 23.3125 1.00879 22.052 1.00006 20.7567L1.00006 20.7567C0.995944 20.1392 1.2182 19.5138 1.6926 19.0068L1.69274 19.0066C1.75773 18.9372 1.82365 18.8681 1.89023 18.7983C2.34191 18.3247 2.82361 17.8197 3.24499 16.9713C3.72537 16.0041 4.14681 14.5326 4.14681 12.1562C4.14681 8.146 6.79192 4.89785 10.4296 3.80271V3.5625C10.4296 2.14267 11.5852 1 13 1C14.4148 1 15.5704 2.14267 15.5704 3.5625V3.80271C19.2081 4.89785 21.8532 8.146 21.8532 12.1562C21.8532 14.5326 22.2746 16.0041 22.755 16.9713C23.1764 17.8197 23.6581 18.3247 24.1098 18.7983C24.1762 18.8679 24.242 18.9369 24.3069 19.0062L17.1414 23.3125ZM17.1414 23.3125H22.4236C23.9653 23.3125 24.992 22.0524 24.9999 20.7561M17.1414 23.3125L24.3073 19.0066C24.7821 19.5136 25.0039 20.1395 24.9999 20.7561M24.9999 20.7561C24.9999 20.7563 24.9999 20.7565 24.9999 20.7567L24 20.75L24.9999 20.7561Z" stroke="white" stroke-width="2"/>
</svg>
