<svg width="11" height="41" viewBox="0 0 11 41" fill="none" xmlns="http://www.w3.org/2000/svg">
<path opacity="0.3" d="M10.8819 6.12094C10.8819 5.75537 10.8819 5.36168 10.8819 4.80864L2.86698 0C2.86698 1.04047 2.86698 1.94969 2.86698 2.87768C3.02926 12.5043 3.24564 22.1591 3.32678 31.7389C3.32678 35.2633 2.64157 38.1973 0.964656 40.1751C0.691691 40.5063 0.365257 40.7854 0 41L8.21326 36.0788C8.59114 35.8559 8.92961 35.5674 9.21402 35.2258C9.73028 34.6035 10.1556 33.9055 10.4762 33.1543C10.3139 31.0452 10.2148 28.9737 10.1967 26.9584C10.1156 19.8251 10.6295 13.048 10.8819 6.12094Z" fill="black"/>
</svg>
