<svg width="25" height="17" viewBox="0 0 25 17" fill="none" xmlns="http://www.w3.org/2000/svg">
<path d="M24.849 7.69967C22.4953 3.10721 17.8355 0 12.5 0C7.16449 0 2.50345 3.10938 0.151018 7.70011C0.0517307 7.89651 0 8.1135 0 8.33357C0 8.55364 0.0517307 8.77063 0.151018 8.96704C2.50476 13.5595 7.16449 16.6667 12.5 16.6667C17.8355 16.6667 22.4966 13.5573 24.849 8.9666C24.9483 8.7702 25 8.55321 25 8.33314C25 8.11306 24.9483 7.89607 24.849 7.69967ZM12.5 14.5834C11.2639 14.5834 10.0555 14.2168 9.02768 13.5301C7.99987 12.8433 7.19879 11.8672 6.72575 10.7251C6.2527 9.58309 6.12893 8.32642 6.37008 7.11404C6.61124 5.90165 7.2065 4.78801 8.08058 3.91393C8.95466 3.03985 10.0683 2.44459 11.2807 2.20343C12.4931 1.96227 13.7497 2.08604 14.8918 2.55909C16.0338 3.03214 17.0099 3.83322 17.6967 4.86103C18.3835 5.88884 18.75 7.09722 18.75 8.33335C18.7504 9.15423 18.589 9.96714 18.2751 10.7256C17.9611 11.4841 17.5008 12.1732 16.9203 12.7537C16.3399 13.3341 15.6507 13.7945 14.8923 14.1084C14.1338 14.4224 13.3209 14.5838 12.5 14.5834ZM12.5 4.16668C12.1281 4.17187 11.7586 4.22721 11.4015 4.33117C11.6958 4.73121 11.8371 5.22349 11.7996 5.71874C11.7622 6.21399 11.5485 6.67942 11.1973 7.03062C10.8461 7.38181 10.3806 7.59552 9.88539 7.63299C9.39014 7.67045 8.89786 7.52919 8.49783 7.23483C8.27003 8.07406 8.31115 8.9636 8.6154 9.77824C8.91964 10.5929 9.47169 11.2916 10.1938 11.7761C10.916 12.2605 11.7719 12.5063 12.6411 12.4788C13.5102 12.4514 14.3489 12.1521 15.039 11.623C15.7292 11.0939 16.236 10.3617 16.4882 9.52953C16.7404 8.69731 16.7253 7.80695 16.445 6.98377C16.1647 6.16059 15.6333 5.44604 14.9256 4.94068C14.2179 4.43533 13.3696 4.16463 12.5 4.16668Z" fill="black" fill-opacity="0.6"/>
</svg>
