<svg width="37" height="29" viewBox="0 0 37 29" fill="none" xmlns="http://www.w3.org/2000/svg">
<path d="M3.46832 24.0164C4.02339 24.4515 4.67295 24.6667 5.39551 24.6667H31.6038C32.3264 24.6667 32.976 24.4515 33.531 24.0164C34.0855 23.5819 34.4163 23.0245 34.4163 22.3542V6.64584C34.4163 5.97546 34.0855 5.41812 33.531 4.98356C32.976 4.5485 32.3264 4.33334 31.6038 4.33334H5.39551C4.67295 4.33334 4.02339 4.5485 3.46832 4.98356C2.91387 5.41812 2.58301 5.97546 2.58301 6.64584V22.3542C2.58301 23.0245 2.91387 23.5819 3.46832 24.0164ZM31.1038 10.4385V13.3354H5.89551V10.4385H31.1038Z" fill="#5465B0" stroke="black"/>
</svg>
