<svg width="12" height="11" viewBox="0 0 12 11" fill="none" xmlns="http://www.w3.org/2000/svg">
<path d="M6.0001 9.625C5.4501 9.625 4.97926 9.44549 4.5876 9.08646C4.19593 8.72743 4.0001 8.29583 4.0001 7.79167C4.0001 7.2875 4.19593 6.8559 4.5876 6.49688C4.97926 6.13785 5.4501 5.95833 6.0001 5.95833C6.5501 5.95833 7.02093 6.13785 7.4126 6.49688C7.80426 6.8559 8.0001 7.2875 8.0001 7.79167C8.0001 8.29583 7.80426 8.72743 7.4126 9.08646C7.02093 9.44549 6.5501 9.625 6.0001 9.625ZM6.0001 8.70833C6.2751 8.70833 6.51051 8.61858 6.70635 8.43906C6.90218 8.25955 7.0001 8.04375 7.0001 7.79167C7.0001 7.53958 6.90218 7.32378 6.70635 7.14427C6.51051 6.96476 6.2751 6.875 6.0001 6.875C5.7251 6.875 5.48968 6.96476 5.29385 7.14427C5.09801 7.32378 5.0001 7.53958 5.0001 7.79167C5.0001 8.04375 5.09801 8.25955 5.29385 8.43906C5.48968 8.61858 5.7251 8.70833 6.0001 8.70833ZM1.5251 3.94167L0.787598 3.31146C1.4626 2.70799 2.24593 2.23438 3.1376 1.89062C4.02926 1.54688 4.98343 1.375 6.0001 1.375C7.01676 1.375 7.97093 1.54688 8.8626 1.89062C9.75426 2.23438 10.5376 2.70799 11.2126 3.31146L10.4751 3.94167C9.88343 3.42986 9.20843 3.02691 8.4501 2.73281C7.69176 2.43872 6.8751 2.29167 6.0001 2.29167C5.1251 2.29167 4.30843 2.43872 3.5501 2.73281C2.79176 3.02691 2.11676 3.42986 1.5251 3.94167ZM8.6501 5.51146C8.3001 5.22118 7.9001 4.99392 7.4501 4.82969C7.0001 4.66545 6.51676 4.58333 6.0001 4.58333C5.48343 4.58333 5.00218 4.66545 4.55635 4.82969C4.11051 4.99392 3.70843 5.22118 3.3501 5.51146L2.6126 4.88125C3.0626 4.49931 3.57718 4.20139 4.15635 3.9875C4.73551 3.77361 5.3501 3.66667 6.0001 3.66667C6.6501 3.66667 7.2626 3.77361 7.8376 3.9875C8.4126 4.20139 8.9251 4.49931 9.3751 4.88125L8.6501 5.51146Z" fill="white"/>
</svg>
