<svg width="39" height="38" viewBox="0 0 39 38" fill="none" xmlns="http://www.w3.org/2000/svg">
<path d="M19.4999 24.6604C19.2833 24.6604 19.0801 24.6274 18.8906 24.5615C18.701 24.4955 18.5249 24.3833 18.3624 24.225L12.5124 18.525C12.1874 18.2083 12.0317 17.8389 12.0452 17.4167C12.0588 16.9944 12.2145 16.625 12.5124 16.3083C12.8374 15.9917 13.2234 15.8267 13.6702 15.8135C14.1171 15.8003 14.5031 15.9521 14.8281 16.2687L17.8749 19.2375V7.91666C17.8749 7.46805 18.0307 7.09201 18.3421 6.78854C18.6536 6.48506 19.0395 6.33333 19.4999 6.33333C19.9604 6.33333 20.3463 6.48506 20.6577 6.78854C20.9692 7.09201 21.1249 7.46805 21.1249 7.91666V19.2375L24.1718 16.2687C24.4968 15.9521 24.8827 15.8003 25.3296 15.8135C25.7765 15.8267 26.1624 15.9917 26.4874 16.3083C26.7854 16.625 26.9411 16.9944 26.9546 17.4167C26.9682 17.8389 26.8124 18.2083 26.4874 18.525L20.6374 24.225C20.4749 24.3833 20.2989 24.4955 20.1093 24.5615C19.9197 24.6274 19.7166 24.6604 19.4999 24.6604Z" fill="#F06704"/>
</svg>
