<svg width="42" height="37" viewBox="0 0 42 37" fill="none" xmlns="http://www.w3.org/2000/svg">
<path d="M4.375 29.0208H34.5V30.3333H4.375C3.76769 30.3333 3.26915 30.1467 2.85161 29.7789C2.4359 29.4126 2.25 29.0011 2.25 28.5208V11.2917H3.875V28.5208V29.0208H4.375ZM14 24.3958H14.5V23.8958C14.5 22.666 14.0099 21.6194 13.0618 20.7842C12.1164 19.9514 10.9603 19.5417 9.625 19.5417H9.125V20.0417V23.8958V24.3958H9.625H14ZM39.1484 7.22115L39.478 6.84698L39.1484 7.22115C39.5641 7.58737 39.75 7.99889 39.75 8.47917V23.8958C39.75 24.3761 39.5641 24.7876 39.1484 25.1539C38.7309 25.5217 38.2323 25.7083 37.625 25.7083H9.625C9.01769 25.7083 8.51915 25.5217 8.10161 25.1539C7.6859 24.7876 7.5 24.3761 7.5 23.8958V8.47917C7.5 7.99889 7.6859 7.58737 8.10161 7.22115C8.51915 6.85331 9.01769 6.66667 9.625 6.66667H37.625C38.2323 6.66667 38.7309 6.85332 39.1484 7.22115ZM32.75 23.8958V24.3958H33.25H37.625H38.125V23.8958V20.0417V19.5417H37.625C36.2897 19.5417 35.1336 19.9514 34.1882 20.7842C33.2401 21.6194 32.75 22.666 32.75 23.8958ZM9.125 12.3333V12.8333H9.625C10.9603 12.8333 12.1164 12.4236 13.0618 11.5908C14.0099 10.7556 14.5 9.70905 14.5 8.47917V7.97917H14H9.625H9.125V8.47917V12.3333ZM37.625 12.8333H38.125V12.3333V8.47917V7.97917H37.625H33.25H32.75V8.47917C32.75 9.70905 33.2401 10.7556 34.1882 11.5908C35.1336 12.4236 36.2897 12.8333 37.625 12.8333ZM23.625 21.3125C25.1955 21.3125 26.5552 20.8245 27.6743 19.8387C28.7956 18.8508 29.375 17.6251 29.375 16.1875C29.375 14.7499 28.7956 13.5242 27.6743 12.5363C26.5552 11.5505 25.1955 11.0625 23.625 11.0625C22.0545 11.0625 20.6948 11.5505 19.5757 12.5363C18.4544 13.5242 17.875 14.7499 17.875 16.1875C17.875 17.6251 18.4544 18.8508 19.5757 19.8387C20.6948 20.8245 22.0545 21.3125 23.625 21.3125Z" fill="#263238" stroke="black"/>
</svg>
