<svg width="58" height="79" viewBox="0 0 58 79" fill="none" xmlns="http://www.w3.org/2000/svg">
<path d="M28.6931 28.1458C28.6931 27.7852 28.6931 27.3968 28.6931 26.8513L20.787 22.1079C20.787 23.1343 20.787 24.0311 20.787 24.9465C20.9471 34.4425 21.1605 43.9662 21.2406 53.416C21.2406 56.8926 20.5646 59.7867 18.9105 61.7377C18.6412 62.0644 18.3192 62.3397 17.9589 62.5514L26.0607 57.697C26.4335 57.4771 26.7673 57.1925 27.0479 56.8556C27.5571 56.2417 27.9766 55.5532 28.2929 54.8122C28.1328 52.7318 28.035 50.6883 28.0172 48.7004C27.9372 41.6639 28.4441 34.9788 28.6931 28.1458Z" fill="#AE140B" fill-opacity="0.41"/>
<path d="M57.9787 29.0427C58.101 27.1642 57.6943 25.2893 56.8083 23.6473C55.9222 22.0052 54.5953 20.667 52.9896 19.7964C48.2465 16.9115 43.4737 14.0359 38.6714 11.1696C33.2583 7.91486 27.8364 4.68172 22.4055 1.47016C21.105 0.620798 19.624 0.116002 18.0923 0C16.191 0.00657362 14.3343 0.598586 12.7563 1.70132L5.86401 5.85293C7.15129 5.24343 8.54933 4.92812 9.96381 4.9283C11.4956 5.0443 12.9766 5.5491 14.2771 6.39846C19.702 9.60386 25.1239 12.837 30.5429 16.0979C35.3216 18.9642 40.0943 21.8398 44.8611 24.7247C46.4661 25.5963 47.7924 26.9346 48.6783 28.5764C49.5642 30.2183 49.9714 32.0927 49.8502 33.971C49.8847 34.5094 49.8054 35.0491 49.618 35.5522C49.4305 36.0554 49.1395 36.5098 48.7653 36.8836L56.6092 32.131C57.4451 31.6964 57.8987 30.6516 57.9787 29.0427Z" fill="#AE140B" fill-opacity="0.41"/>
<path d="M46.2928 78.5199L46.3642 78.4736H46.2928V78.5199Z" fill="#455A64" fill-opacity="0.5"/>
<path d="M49.8413 33.9802C49.9624 32.1019 49.5552 30.2275 48.6693 28.5856C47.7834 26.9438 46.4571 25.6055 44.8521 24.7339C40.109 21.849 35.3363 18.9734 30.5339 16.1071C25.1149 12.8524 19.693 9.61922 14.2681 6.40766C12.9676 5.5583 11.4866 5.0535 9.95483 4.9375C8.54035 4.93733 7.14228 5.25263 5.855 5.86213C5.37621 6.10341 4.91544 6.38158 4.47655 6.69431H4.42319C2.62694 8.10362 1.12851 9.88181 0.0210026 11.9185C-0.0501438 12.0387 0.0743743 12.3808 0.172201 13.1298C1.3639 13.4256 2.48445 13.6753 3.6139 13.9989C6.48644 14.8218 9.35896 15.6448 12.2493 16.5601C12.4096 16.6157 12.5644 16.6869 12.7118 16.7728C13.0907 17.0258 13.3978 17.3795 13.601 17.7973C13.8043 18.2151 13.8964 18.6818 13.8679 19.1491C14.0635 29.0335 14.6861 39.2137 10.5329 45.834C9.5638 47.6227 8.98681 49.6118 8.84316 51.6592C8.49632 54.7198 10.3283 58.631 12.9252 61.1737C13.3619 61.6023 13.842 61.9805 14.357 62.3018C14.863 62.6628 15.4514 62.8793 16.0632 62.9296C16.6751 62.9799 17.2888 62.8622 17.8432 62.5884H17.8965H17.9588C18.3191 62.3768 18.6411 62.1014 18.9104 61.7747C20.5645 59.833 21.276 56.9389 21.2404 53.453C21.1604 44.0033 20.9469 34.4795 20.7869 24.9836C20.7869 24.0589 20.7869 23.1343 20.7869 22.1449L28.693 26.8883C28.693 27.4338 28.693 27.8129 28.693 28.1828C28.444 35.0158 27.9371 41.7009 28.0171 48.7281C28.0171 50.7161 28.1327 52.7595 28.2928 54.84C28.5265 57.944 28.9333 61.0313 29.5112 64.0863C30.0159 66.8104 31.0692 69.3927 32.6019 71.6636C34.1347 73.9344 36.1121 75.8425 38.4045 77.2623C39.0082 77.6162 39.6353 77.9252 40.281 78.187C41.2143 78.6627 42.231 78.936 43.2691 78.9901C44.3073 79.0441 45.3451 78.8778 46.3195 78.5013H46.3907C46.6744 78.3715 46.9454 78.2136 47.2 78.0298C47.9949 77.3849 48.6341 76.5558 49.0664 75.6087C49.4987 74.6616 49.7123 73.6225 49.6901 72.5744C49.7447 71.2106 49.528 69.8497 49.0537 68.5769C48.5793 67.3042 47.8574 66.1468 46.9331 65.1774C46.8195 65.5537 46.742 65.9409 46.7019 66.3331C46.5151 69.5694 45.1901 70.7344 42.531 69.9485C42.1013 69.8215 41.6889 69.6382 41.3037 69.4029C39.525 68.3581 38.0488 66.2407 36.9727 63.2079C36.4269 61.7096 36.016 60.1619 35.7454 58.5847C34.1979 48.8113 35.1228 40.5914 36.5725 32.7412C36.6614 32.2789 37.4618 32.1125 38.0132 32.3899C38.8491 32.8429 39.6762 33.3145 40.5122 33.8415C40.8857 34.0542 41.2503 34.2761 41.615 34.498L42.5043 35.0251L43.5537 35.6446C44.114 35.9774 44.6742 36.3011 45.2345 36.5692C46.8086 37.4291 48.0092 37.4938 48.7918 36.8928C49.1597 36.5157 49.4441 36.0598 49.6253 35.5568C49.8066 35.0538 49.8802 34.5158 49.8413 33.9802Z" fill="#AE140B" fill-opacity="0.41"/>
<path d="M45.0479 58.2425C44.503 56.744 44.0921 55.1964 43.8206 53.6194C42.8873 47.647 42.7705 41.5676 43.4738 35.5613L42.4243 34.9418L41.535 34.4147C41.1704 34.1928 40.8058 33.9709 40.4323 33.7582C39.5963 33.2497 38.7692 32.7596 37.9332 32.3066C37.4174 32.0292 36.5815 32.1956 36.4925 32.6579C35.0429 40.5081 34.118 48.728 35.6655 58.5014C35.9361 60.0786 36.3469 61.6263 36.8927 63.1246C37.9688 66.1574 39.4807 68.2748 41.2238 69.3196C41.6089 69.5549 42.0213 69.7382 42.451 69.8652C45.119 70.6511 46.4352 69.4861 46.622 66.2498C46.6621 65.8576 46.7396 65.4704 46.8532 65.0941L48.703 63.9845C46.9942 62.4617 45.7283 60.473 45.0479 58.2425Z" fill="#AE140B" fill-opacity="0.41"/>
<path d="M55.0439 60.2213L48.7564 63.9938L46.9066 65.1034C47.8308 66.0728 48.5527 67.2302 49.0271 68.5029C49.5014 69.7757 49.7181 71.1366 49.6635 72.5004C49.6857 73.5486 49.4721 74.5876 49.0398 75.5347C48.6075 76.4818 47.9684 77.3109 47.1734 77.9558L54.9105 73.3326H54.9728L55.0439 73.2864C56.6625 72.26 57.7119 70.3183 57.8008 67.6461C57.8592 66.2777 57.6443 64.9115 57.1699 63.6337C56.6954 62.3558 55.9715 61.194 55.0439 60.2213Z" fill="#AE140B" fill-opacity="0.41"/>
<path opacity="0.3" d="M28.6931 28.1458C28.6931 27.7852 28.6931 27.3968 28.6931 26.8513L20.787 22.1079C20.787 23.1343 20.787 24.0311 20.787 24.9465C20.9471 34.4425 21.1605 43.9662 21.2406 53.416C21.2406 56.8926 20.5646 59.7867 18.9105 61.7377C18.6412 62.0644 18.3192 62.3397 17.9589 62.5514L26.0607 57.697C26.4335 57.4771 26.7673 57.1925 27.0479 56.8556C27.5571 56.2417 27.9766 55.5532 28.2929 54.8122C28.1328 52.7318 28.035 50.6883 28.0172 48.7004C27.9372 41.6639 28.4441 34.9788 28.6931 28.1458Z" fill="black"/>
<path opacity="0.3" d="M57.9787 29.0427C58.101 27.1642 57.6943 25.2893 56.8083 23.6473C55.9222 22.0052 54.5953 20.667 52.9896 19.7964C48.2465 16.9115 43.4737 14.0359 38.6714 11.1696C33.2583 7.91486 27.8364 4.68172 22.4055 1.47016C21.105 0.620798 19.624 0.116002 18.0923 0C16.191 0.00657362 14.3343 0.598586 12.7563 1.70132L5.86401 5.85293C7.15129 5.24343 8.54933 4.92812 9.96381 4.9283C11.4956 5.0443 12.9766 5.5491 14.2771 6.39846C19.702 9.60386 25.1239 12.837 30.5429 16.0979C35.3216 18.9642 40.0943 21.8398 44.8611 24.7247C46.4661 25.5963 47.7924 26.9346 48.6783 28.5764C49.5642 30.2183 49.9714 32.0927 49.8502 33.971C49.8847 34.5094 49.8054 35.0491 49.618 35.5522C49.4305 36.0554 49.1395 36.5098 48.7653 36.8836L56.6092 32.131C57.4451 31.6964 57.8987 30.6516 57.9787 29.0427Z" fill="black"/>
<path opacity="0.3" d="M45.0479 58.2425C44.503 56.744 44.0921 55.1964 43.8206 53.6194C42.8873 47.647 42.7705 41.5676 43.4738 35.5613L42.4243 34.9418L41.535 34.4147C41.1704 34.1928 40.8058 33.9709 40.4323 33.7582C39.5963 33.2497 38.7692 32.7596 37.9332 32.3066C37.4174 32.0292 36.5815 32.1956 36.4925 32.6579C35.0429 40.5081 34.118 48.728 35.6655 58.5014C35.9361 60.0786 36.3469 61.6263 36.8927 63.1246C37.9688 66.1574 39.4807 68.2748 41.2238 69.3196C41.6089 69.5549 42.0213 69.7382 42.451 69.8652C45.119 70.6511 46.4352 69.4861 46.622 66.2498C46.6621 65.8576 46.7396 65.4704 46.8532 65.0941L48.703 63.9845C46.9942 62.4617 45.7283 60.473 45.0479 58.2425Z" fill="black"/>
<path opacity="0.3" d="M55.0439 60.2213L48.7564 63.9938L46.9066 65.1034C47.8308 66.0728 48.5527 67.2302 49.0271 68.5029C49.5014 69.7757 49.7181 71.1366 49.6635 72.5004C49.6857 73.5486 49.4721 74.5876 49.0398 75.5347C48.6075 76.4818 47.9684 77.3109 47.1734 77.9558L54.9105 73.3326H54.9728L55.0439 73.2864C56.6625 72.26 57.7119 70.3183 57.8008 67.6461C57.8592 66.2777 57.6443 64.9115 57.1699 63.6337C56.6954 62.3558 55.9715 61.194 55.0439 60.2213Z" fill="black"/>
</svg>
