<svg width="14" height="38" viewBox="0 0 14 38" fill="none" xmlns="http://www.w3.org/2000/svg">
<path d="M10.2022 26.119C9.65629 24.6176 9.24469 23.0672 8.97267 21.4873C8.03765 15.5039 7.92068 9.41325 8.62521 3.39588L7.57384 2.77525L6.68287 2.24723C6.31758 2.02491 5.95229 1.8026 5.57808 1.58954C4.74057 1.08006 3.91197 0.589089 3.07446 0.135184C2.5577 -0.142718 1.72019 0.0240276 1.63109 0.487197C0.178812 8.35181 -0.74779 16.5869 0.802497 26.3783C1.07362 27.9585 1.48521 29.509 2.03201 31.01C3.11009 34.0484 4.62476 36.1697 6.37106 37.2165C6.75694 37.4522 7.17008 37.6358 7.60057 37.763C10.2735 38.5504 11.5921 37.3832 11.7792 34.1411C11.8194 33.7481 11.897 33.3602 12.0109 32.9831L13.8641 31.8715C12.1521 30.3459 10.8839 28.3536 10.2022 26.119Z" fill="#AE140B" fill-opacity="0.41"/>
</svg>
