<svg width="104" height="116" viewBox="0 0 104 116" fill="none" xmlns="http://www.w3.org/2000/svg">
<path d="M19.1279 24.9264C19.777 25.3466 20.3619 25.8721 20.862 26.4846C21.9285 27.7486 22.6976 29.2698 23.1046 30.9203L31.8142 67.277L38.2291 43.9049L33.6396 24.6457C33.2275 22.9932 32.4591 21.4686 31.397 20.1958C30.8855 19.5851 30.2923 19.0599 29.6368 18.6377C29.1541 18.3241 28.6174 18.1188 28.0592 18.0341L13.5214 16.2373L3.01243 22.526L17.5502 24.3228C18.1099 24.4012 18.6478 24.607 19.1279 24.9264Z" fill="white" fill-opacity="0.6"/>
<path d="M36.2862 88.7823C36.1424 89.3839 35.8052 89.9112 35.3344 90.2703L45.3218 84.2763C45.6851 84.1375 46.0102 83.9028 46.2675 83.5939C46.5249 83.2849 46.7063 82.9115 46.7951 82.5076L62.5846 25.0248L55.0875 20.3644L36.2862 88.7823Z" fill="white" fill-opacity="0.6"/>
<path d="M51.8801 7.87111L91.5689 32.5487L102.078 26.26L62.376 1.58238C61.9972 1.30932 61.5685 1.12671 61.1187 1.04681C60.669 0.966907 60.2085 0.991577 59.7683 1.11916H59.677C59.5356 1.18478 59.4003 1.26468 59.2728 1.35779L49.0769 7.44999C49.5408 7.26996 50.0384 7.21423 50.5268 7.2876C51.0152 7.36097 51.4797 7.56124 51.8801 7.87111Z" fill="white" fill-opacity="0.6"/>
<path d="M34.9823 90.4808L35.1393 90.3965H34.9823V90.4808Z" fill="white" fill-opacity="0.6"/>
<path d="M78.5569 60.7357L67.6177 53.9416L57.1218 60.2304L68.0479 67.0244L78.5569 60.7357Z" fill="white" fill-opacity="0.6"/>
<path d="M72.9241 78.7315L78.0612 73.2429L82.6246 70.5197L78.5567 60.7357L68.0477 67.0244L72.9241 78.7315Z" fill="white" fill-opacity="0.6"/>
<path d="M51.8801 7.87113C51.4673 7.55408 50.9874 7.3533 50.4841 7.2871C49.9808 7.2209 49.4701 7.29138 48.9986 7.49212L48.7248 7.64653C48.297 8.00268 47.9826 8.49323 47.8251 9.05026L38.2941 43.8207L31.8792 67.1929L23.1696 30.8362C22.7321 29.209 21.941 27.7173 20.8618 26.4846C20.3538 25.8699 19.76 25.3442 19.1016 24.9265C18.6215 24.607 18.0837 24.4013 17.524 24.3229L2.98616 22.5261L6.12842 34.2332L16.5591 35.5247L28.1893 84.0517C28.7916 86.5661 30.2661 88.7363 32.3095 90.1158C32.692 90.3808 33.1249 90.5498 33.5762 90.6106C34.0276 90.6713 34.4858 90.6222 34.9172 90.4668H35.0736L35.2692 90.3404C35.74 89.9813 36.0773 89.4541 36.221 88.8525L55.0484 20.3644L62.5846 25.0247L91.5429 43.1048V32.6049L51.8801 7.87113Z" fill="white" fill-opacity="0.6"/>
<path d="M88.3226 79.6299L78.0614 73.2429L72.9243 78.7315L68.048 67.0244L57.1218 60.2303L67.2917 83.7008L56.7176 94.2849L67.2396 100.826L72.5723 95.1552L77.5138 107.213L88.5965 114.106L78.0614 89.9614L88.3226 79.6299Z" fill="white" fill-opacity="0.6"/>
<path d="M91.5688 32.5488L91.5427 43.0487L102.052 36.774L102.078 26.2601L91.5688 32.5488Z" fill="white" fill-opacity="0.6"/>
<path d="M88.3225 79.63L98.8314 73.3413L88.5702 66.9684L82.6247 70.5198L78.0613 73.243L88.3225 79.63Z" fill="white" fill-opacity="0.6"/>
<path opacity="0.2" d="M18.8507 25.3431L18.8506 25.3431L18.856 25.3466C19.4604 25.7377 20.0065 26.2281 20.4743 26.8011L20.4743 26.8011L20.4795 26.8073C21.4946 28.0105 22.2291 29.4612 22.6183 31.0386C22.6184 31.0391 22.6185 31.0396 22.6187 31.0402L31.3275 67.3936L32.2968 67.4095L38.7117 44.0373L38.7457 43.9136L38.716 43.7889L34.1264 24.5296L34.1264 24.5296L34.1252 24.5246C33.6953 22.8008 32.8931 21.2076 31.7812 19.8752L31.7807 19.8745C31.2378 19.2263 30.607 18.6675 29.9087 18.2175C29.3676 17.8662 28.7641 17.6349 28.1343 17.5393L28.1343 17.5391L28.1205 17.5374L13.5828 15.7406L13.412 15.7195L13.2644 15.8079L2.75545 22.0966L1.50622 22.8441L2.95104 23.0227L17.4847 24.819C17.9672 24.8871 18.4328 25.0651 18.8507 25.3431Z" fill="white" stroke="#FAFAFA"/>
<path opacity="0.2" d="M35.8036 88.6497L35.8014 88.6578L35.7994 88.666C35.6812 89.1609 35.4056 89.5865 35.0309 89.8724L35.5919 90.6994L45.5436 84.7269C45.9721 84.5546 46.3518 84.2746 46.6521 83.9142C46.9593 83.5453 47.1744 83.1031 47.281 82.6283L63.0672 25.1573L63.1662 24.797L62.8488 24.5997L55.3518 19.9393L54.7826 19.5855L54.605 20.2318L35.8036 88.6497Z" fill="white" stroke="#FAFAFA"/>
<path opacity="0.2" d="M51.5738 8.26691L51.5941 8.28259L51.6158 8.29612L91.3047 32.9737L91.564 33.135L91.8259 32.9782L102.335 26.6895L103.039 26.2681L102.342 25.835L62.6542 1.16606C62.2193 0.855736 61.726 0.646383 61.2063 0.554058C60.7049 0.464989 60.1921 0.487208 59.7 0.618693H59.677H59.5666L59.4664 0.665183C59.3021 0.741409 59.1451 0.833289 58.9972 0.939492L48.8202 7.02037L49.2579 7.91655C49.6413 7.76779 50.0509 7.72218 50.4525 7.78251C50.8542 7.84285 51.2392 8.00796 51.5738 8.26691Z" fill="white" stroke="#FAFAFA"/>
<path opacity="0.2" d="M34.4818 90.4808V91.3171L35.2188 90.9218L35.3758 90.8376L35.2862 90.4808H35.4827V90.3965H35.265L35.1393 89.8961H34.9823H34.4818V90.3965V90.4808Z" fill="white" stroke="#FAFAFA"/>
<path opacity="0.2" d="M78.8139 61.1652L79.5182 60.7436L78.8209 60.3106L67.8817 53.5165L67.6223 53.3554L67.3604 53.5123L56.8646 59.8011L56.1613 60.2224L56.8575 60.6554L67.7837 67.4494L68.0429 67.6107L68.3049 67.4539L78.8139 61.1652Z" fill="white" stroke="#FAFAFA"/>
<path opacity="0.2" d="M88.058 80.0549L88.3173 80.2163L88.5794 80.0595L99.0884 73.7707L99.7928 73.3492L99.0954 72.9162L88.8342 66.5432L88.5753 66.3824L88.3136 66.5387L82.3682 70.09L82.3681 70.0901L77.8048 72.8133L77.0997 73.234L77.7968 73.6679L88.058 80.0549Z" fill="white" stroke="#FAFAFA"/>
<path d="M78.0613 89.9615L88.5702 83.6728L98.8314 73.3413L88.3225 79.63L78.0613 89.9615Z" fill="white" fill-opacity="0.6"/>
<path opacity="0.4" d="M77.7062 89.6088L78.3182 90.3909L88.8272 84.1022L88.881 84.07L88.9253 84.0254L99.1865 73.6939L98.5744 72.9118L88.0655 79.2006L88.0116 79.2328L87.9674 79.2773L77.7062 89.6088Z" fill="white" stroke="#FAFAFA"/>
<path d="M78.0613 89.9614L88.5963 114.106L99.1052 107.817L88.5702 83.6726L78.0613 89.9614Z" fill="white" fill-opacity="0.6"/>
<path opacity="0.3" d="M72.4621 78.9239L72.76 79.6392L73.2894 79.0735L78.3783 73.6365L82.8811 70.9494L83.253 70.7275L83.0867 70.3275L79.0188 60.5435L78.7965 60.0089L78.2997 60.3062L67.7907 66.5949L67.4193 66.8172L67.5857 67.2168L72.4621 78.9239Z" fill="white" stroke="#FAFAFA"/>
<path opacity="0.3" d="M91.3118 32.1194L91.0691 32.2646L91.0684 32.5476L91.0423 43.0475L91.0401 43.9317L91.7993 43.4784L102.308 37.2037L102.551 37.0585L102.552 36.7753L102.578 26.2613L102.58 25.376L101.821 25.8306L91.3118 32.1194Z" fill="white" stroke="#FAFAFA"/>
<path opacity="0.3" d="M77.8043 89.5319L77.4265 89.758L77.6026 90.1615L88.1376 114.306L88.3651 114.827L88.8533 114.535L99.3622 108.246L99.74 108.02L99.5639 107.617L89.0289 83.4725L88.8014 82.9511L88.3132 83.2432L77.8043 89.5319Z" fill="white" stroke="#FAFAFA"/>
</svg>
