<svg width="50" height="75" viewBox="0 0 50 75" fill="none" xmlns="http://www.w3.org/2000/svg">
<path d="M49.979 29.123C50.1005 27.2395 49.6922 25.3599 48.8038 23.7135C47.9155 22.0671 46.5855 20.7251 44.9761 19.8511C40.2199 16.9583 35.4339 14.0747 30.6183 11.2004C25.1843 7.93674 19.7474 4.69466 14.3075 1.47423C13.0034 0.622514 11.5183 0.116322 9.98234 7.18141e-08C8.56395 -0.000173971 7.16202 0.316002 5.87119 0.927189C5.39107 1.16913 4.92903 1.44807 4.48893 1.76167H4.43542C2.6342 3.17487 1.13163 4.95798 0.0210607 7.00028C-0.0502824 7.12081 0.0745799 7.46387 0.172677 8.21489C1.36767 8.5116 2.49132 8.76194 3.62389 9.08645C6.50436 9.91165 9.38483 10.7369 12.2831 11.6548C12.4439 11.7104 12.5992 11.7818 12.7469 11.868C13.1269 12.1217 13.4348 12.4764 13.6386 12.8953C13.8425 13.3143 13.9348 13.7823 13.9062 14.2509C14.1024 24.1626 14.7266 34.3709 10.562 41.0096C9.59023 42.8031 9.01165 44.7978 8.86761 46.8509C8.51981 49.9198 10.3569 53.8419 12.9609 56.3916C13.3989 56.8214 13.8802 57.2007 14.3967 57.5228C14.9041 57.8848 15.4941 58.1019 16.1076 58.1524C16.7211 58.2028 17.3366 58.0848 17.8925 57.8102H17.946H18.0084C18.3697 57.598 18.6926 57.3219 18.9626 56.9943C20.6213 55.0472 21.3348 52.1451 21.2991 48.6496C21.2189 39.1737 21.0048 29.6237 20.8443 20.1015C20.8443 19.1743 20.8443 18.2471 20.8443 17.255L28.7723 22.0115C28.7723 22.5585 28.7723 22.9387 28.7723 23.3095C28.5226 30.1615 28.0143 36.865 28.0945 43.9117C28.0945 45.9051 28.2105 47.9542 28.371 50.0404C28.6053 53.153 29.0133 56.2488 29.5927 59.3123C30.0988 62.0439 31.1551 64.6334 32.692 66.9105C34.229 69.1876 36.2119 71.1009 38.5106 72.5247C39.116 72.8796 39.7448 73.1894 40.3923 73.4519C41.3282 73.929 42.3477 74.203 43.3887 74.2572C44.4298 74.3114 45.4705 74.1447 46.4475 73.7671H46.5189C46.8034 73.637 47.0751 73.4786 47.3304 73.2943C48.1276 72.6476 48.7685 71.8163 49.202 70.8665C49.6355 69.9168 49.8497 68.8749 49.8274 67.8239C49.8822 66.4563 49.6649 65.0917 49.1892 63.8153C48.7135 62.539 47.9897 61.3785 47.0629 60.4064C46.9489 60.7838 46.8712 61.172 46.831 61.5653C46.6437 64.8105 45.315 65.9788 42.6485 65.1907C42.2176 65.0633 41.8041 64.8795 41.4179 64.6436C39.6343 63.5959 38.1539 61.4726 37.0749 58.4314C36.5276 56.929 36.1156 55.3771 35.8442 53.7955C34.2925 43.9951 35.2199 35.7524 36.6735 27.8806C36.7627 27.417 37.5653 27.2501 38.1182 27.5282C38.9565 27.9826 39.7859 28.4554 40.6242 28.9839C40.9987 29.1972 41.3644 29.4197 41.73 29.6422L42.6218 30.1707L43.6741 30.7919C44.2359 31.1257 44.7977 31.4502 45.3595 31.7191C46.938 32.5814 48.1419 32.6463 48.9267 32.0436C49.2956 31.6655 49.5808 31.2083 49.7625 30.7039C49.9442 30.1996 50.0181 29.6601 49.979 29.123Z" fill="#AE140B" fill-opacity="0.41"/>
</svg>
